<svg width="995" height="518" viewBox="0 0 995 518" fill="none" xmlns="http://www.w3.org/2000/svg">
<path fill-rule="evenodd" clip-rule="evenodd" d="M532 2C531.207 3.1 529.753 4 528.769 4C527.785 4 526.21 4.9 525.268 6C524.326 7.1 523.188 8 522.739 8C522.29 8 520.049 9.8 517.76 12C515.47 14.2 513.238 16 512.799 16C512.359 16 512 16.471 512 17.048C512 18.515 506.992 23 505.354 23C503.299 23 499.772 26.964 500.391 28.577C500.692 29.36 501.684 30 502.598 30C504.055 30 504.173 30.87 503.559 37.102C502.659 46.23 502.324 46.985 498.874 47.675C497.293 47.991 496 48.644 496 49.125C496 49.606 494.749 50 493.219 50C491.048 50 490.19 49.343 489.306 47C488.344 44.45 487.646 44 484.658 44C482.725 44 480.544 44.599 479.812 45.331C479.079 46.064 477.254 46.97 475.755 47.347C473.935 47.803 472.811 48.903 472.371 50.659C471.417 54.46 472.78 75.246 474.034 76.021C474.617 76.381 475.358 81.586 475.682 87.588C476.005 93.59 476.659 98.996 477.135 99.602C477.611 100.209 478.289 103.471 478.642 106.852C478.996 110.234 479.602 113 479.988 113C480.375 113 480.997 119.412 481.37 127.25C481.743 135.088 482.487 141.65 483.024 141.833C484.313 142.274 484.291 149 483 149C482.45 149 482 150.8 482 153C482 155.2 482.337 157.003 482.75 157.006C483.163 157.01 484.308 158.433 485.297 160.169C486.652 162.55 486.796 163.508 485.881 164.074C485.029 164.6 485.608 165.762 487.834 167.988C489.603 169.757 491 172.197 491 173.518C491 174.818 491.45 176.16 492 176.5C493.239 177.266 493.334 183 492.108 183C491.618 183 490.932 184.136 490.583 185.525C490.234 186.914 489.173 188.842 488.225 189.808C487.276 190.775 485.182 193.239 483.57 195.283C481.26 198.214 479.95 199 477.379 199C475.586 199 473.84 199.45 473.5 200C473.16 200.55 470.821 201 468.302 201C464.962 201 462.4 201.813 458.846 204C456.1 205.689 452.557 207.007 450.735 207.015C446.786 207.034 445.48 207.825 444.567 210.75C443.642 213.716 441.082 213.603 438.398 210.48C436.256 207.987 436.199 207.979 433.123 209.73C431.412 210.703 430.01 211.838 430.006 212.25C429.995 213.563 427.292 213.057 426 211.5C424.372 209.538 422.541 209.602 420.449 211.694C418.649 213.494 410.033 213.672 408.957 211.931C408.655 211.443 404.492 210.742 399.704 210.374C394.917 210.006 391 209.357 391 208.932C391 208.507 389.65 207.862 388 207.5C386.35 207.138 384.986 206.314 384.968 205.671C384.948 204.944 384.467 205.068 383.698 206C381.917 208.158 378 210.226 378 209.008C378 208.454 377.1 208 376 208C374.9 208 374 207.529 374 206.952C374 206.376 372.945 204.913 371.656 203.702C370.366 202.491 368.993 200.205 368.604 198.622C367.727 195.049 363.114 190.318 359.664 189.452C358.238 189.094 356.782 187.889 356.428 186.774C355.837 184.912 355.247 184.801 349.203 185.42C344.318 185.921 342.27 186.598 341.254 188.047C340.502 189.121 339.275 190 338.527 190C337.779 190 336.979 190.562 336.75 191.249C336.192 192.925 323.406 192.582 321.3 190.834C320.374 190.065 316.688 189.489 312.168 189.407C307.521 189.322 304.443 188.83 304.211 188.134C303.744 186.733 300.343 186.636 299.5 188C299.16 188.55 298.009 189 296.941 189C295.873 189 295 188.55 295 188C295 187.45 294.55 187 294 187C293.45 187 293 187.723 293 188.607C293 189.662 292.456 190.005 291.418 189.607C290.548 189.273 288.073 189 285.918 189C283.102 189 282 188.578 282 187.5C282 186.661 281.108 186 279.975 186C277.408 186 276 182.434 276 175.935C276 171.667 276.27 171 278 171C279.1 171 280 170.609 280 170.132C280 169.654 281.903 169.008 284.228 168.696C286.554 168.384 288.617 167.65 288.812 167.065C289.007 166.479 289.804 166 290.583 166C291.363 166 292 165.11 292 164.023C292 162.936 293.125 161.309 294.5 160.408C295.875 159.507 297 158.147 297 157.385C297 156.623 297.482 156 298.071 156C299.665 156 302 153.367 302 151.571C302 150.707 302.441 150 302.981 150C303.52 150 304.244 148.875 304.589 147.5C304.934 146.125 305.618 145 306.108 145C306.599 145 307 144.345 307 143.545C307 142.669 308.419 141.824 310.566 141.422C312.989 140.967 315.672 139.188 318.933 135.876C321.573 133.194 324.013 131 324.355 131C325.385 131 329 127.622 329 126.66C329 126.167 330.366 124.13 332.035 122.132C336.566 116.709 337 116.133 337 115.542C337 115.244 337.788 114.168 338.75 113.15C342.338 109.357 343.971 106.965 344.553 104.643C344.883 103.331 346.236 101.677 347.56 100.968C348.884 100.26 350.237 98.829 350.567 97.79C351.458 94.983 357.676 89.119 360.519 88.406C361.884 88.063 363 87.382 363 86.892C363 86.401 363.64 86 364.423 86C365.206 86 367.196 84.65 368.846 83C370.496 81.35 372.231 80 372.701 80C373.773 80 377 76.292 377 75.061C377 74.557 375.814 73.212 374.365 72.073C372.916 70.933 372.241 70 372.865 70C373.489 70 374 69.37 374 68.6C374 67.83 375.575 65.625 377.5 63.7C379.727 61.473 381 59.243 381 57.569C381 56.121 381.675 54.678 382.5 54.362C383.325 54.045 384 53.155 384 52.383C384 51.612 384.9 50.21 386 49.268C387.1 48.326 388 46.981 388 46.278C388 45.575 388.45 45 389 45C389.55 45 390 44.078 390 42.95C390 40.757 395.356 34.751 398.25 33.699C399.212 33.349 400 32.374 400 31.531C400 30.689 400.414 30 400.921 30C401.427 30 402.157 28.563 402.542 26.807C403.262 23.532 405.121 21 406.806 21C407.328 21 408.286 20.36 408.935 19.578C409.584 18.796 411.889 17.857 414.058 17.49C418.397 16.757 419.021 15.216 416.278 12.011C415.202 10.756 413.324 10 411.278 10C409.475 10 408 9.55 408 9C408 7.317 402.027 7.89 400.171 9.75C399.211 10.713 397.542 13.3 396.463 15.5C395.383 17.7 394.275 19.725 394 20C392.449 21.551 385 32.974 385 33.802C385 34.343 384.325 35.045 383.5 35.362C382.675 35.678 382 36.462 382 37.104C382 37.746 380.928 39.265 379.617 40.479C378.306 41.694 376.926 43.658 376.55 44.844C376.173 46.03 375.446 47 374.933 47C374.42 47 374 47.689 374 48.531C374 49.374 373.325 50.322 372.5 50.638C371.675 50.955 371 51.845 371 52.617C371 53.388 370.1 54.79 369 55.732C367.9 56.674 367 57.829 367 58.299C367 58.769 365.65 60.504 364 62.154C362.35 63.804 361 65.554 361 66.042C361 66.824 359.735 68.343 353.472 75.084C352.662 75.955 352 77.123 352 77.679C352 78.235 351.1 79.505 350 80.5C348.9 81.495 348 82.915 348 83.655C348 84.395 347.58 85 347.067 85C346.554 85 345.82 85.992 345.435 87.203C345.051 88.415 344.233 89.975 343.618 90.669C340.882 93.756 340.202 94.787 339.555 96.827C339.176 98.022 338.446 99 337.933 99C337.42 99 337 99.689 337 100.531C337 101.374 336.325 102.322 335.5 102.638C334.675 102.955 334 103.845 334 104.617C334 105.388 333.1 106.79 332 107.732C330.9 108.674 330 109.816 330 110.27C330 110.724 328.875 112.138 327.5 113.412C326.125 114.687 325 116.218 325 116.815C325 117.412 324.404 118.26 323.676 118.7C322.948 119.14 321.26 121.048 319.926 122.94C316.923 127.198 289.271 155 288.039 155C287.546 155 286.397 155.746 285.486 156.657C284.575 157.568 280.83 160.471 277.164 163.108C273.499 165.745 270.05 168.265 269.5 168.708C268.95 169.151 267.375 170.07 266 170.75C262.897 172.284 259.662 174.301 259 175.115C258.725 175.454 257.375 176.077 256 176.5C254.625 176.923 253.275 177.547 253 177.886C251.915 179.223 243.157 183 241.14 183C239.963 183 239 183.418 239 183.928C239 184.439 236.525 185.41 233.5 186.087C230.475 186.764 228 187.697 228 188.159C228 188.622 224.4 189 220 189C215.6 189 212 188.609 212 188.13C212 187.652 209.941 187.028 207.424 186.744C204.185 186.379 202.386 185.569 201.265 183.969C200.395 182.726 198.854 180.999 197.841 180.132C196.829 179.265 196 177.922 196 177.147C196 175.418 189.083 176.248 187.929 178.115C187.452 178.887 183.785 179.336 177.431 179.4C170.72 179.469 167.54 179.881 167.26 180.718C167.037 181.388 165.2 182.241 163.177 182.613C161.155 182.984 159.179 183.786 158.786 184.394C157.782 185.949 118.27 185.269 116.31 183.663C115.529 183.024 113.549 181.262 111.911 179.75C108.528 176.628 102 175.805 102 178.5C102 179.325 101.55 180 101 180C100.45 180 100 181.093 100 182.429C100 183.764 99.384 185.473 98.632 186.225C97.879 186.978 96.949 188.585 96.565 189.797C96.18 191.008 95.479 192 95.006 192C93.814 192 91.183 197.506 90.413 201.612C90.061 203.487 89.374 205.269 88.887 205.57C87.589 206.372 87.804 212.404 89.18 213.78C90.086 214.686 90.028 215.581 88.93 217.641C87.315 220.669 87.164 231.85 88.725 232.857C89.274 233.211 90.037 235.637 90.422 238.25C90.808 240.862 91.487 243 91.933 243C92.379 243 93.048 244.899 93.419 247.22C93.79 249.541 94.547 251.72 95.102 252.063C95.656 252.405 96.376 256.806 96.703 261.843C97.029 266.879 97.679 271 98.148 271C98.617 271 99 271.9 99 273C99 274.1 98.608 275 98.129 275C97.65 275 96.944 278.6 96.56 283C96.177 287.4 95.501 291 95.06 291C94.619 291 93.959 293.25 93.594 296C93.23 298.75 92.497 301 91.966 301C91.435 301 90.985 302.012 90.966 303.25C90.947 304.488 90.063 307.3 89 309.5C87.937 311.7 87.053 314.512 87.034 315.75C87.015 316.988 86.586 318 86.079 318C85.573 318 84.862 319.35 84.5 321C84.138 322.65 83.511 324 83.107 324C82.704 324 81.755 325.575 81 327.5C80.245 329.425 79.296 331 78.893 331C78.489 331 77.862 332.35 77.5 334C77.138 335.65 76.463 337 76 337C75.537 337 74.862 338.35 74.5 340C73.989 342.326 73.297 343 71.421 343C70.089 343 69 343.45 69 344C69 344.55 69.45 345 70 345C71.62 345 71.19 353.598 69.5 355C68.675 355.685 68 356.865 68 357.622C68 358.38 67.559 359 67.019 359C66.48 359 65.764 360.092 65.429 361.428C65.094 362.763 64.185 364.099 63.41 364.396C62.634 364.694 62 365.626 62 366.469C62 367.311 61.559 368 61.019 368C60.48 368 59.764 369.092 59.429 370.428C59.094 371.763 58.185 373.099 57.41 373.396C56.634 373.694 56 374.578 56 375.362C56 376.145 55.325 377.045 54.5 377.362C53.675 377.678 53 378.542 53 379.282C53 380.021 51.65 381.919 50 383.5C48.35 385.081 47 386.725 47 387.154C47 387.583 45.425 389.508 43.5 391.433C41.575 393.358 40 395.399 40 395.968C40 396.537 38.2 398.749 36 400.884C33.8 403.019 32 405.111 32 405.532C32 405.953 30.425 407.828 28.5 409.697C26.575 411.567 25 413.674 25 414.379C25 415.085 23.984 416.206 22.742 416.87C21.501 417.535 19.363 419.727 17.992 421.743C16.622 423.758 14.375 426.677 13 428.229C11.625 429.781 8.92503 432.885 7.00003 435.125C5.07503 437.366 2.67203 440.014 1.65903 441.009C-0.704974 443.332 -0.120974 446.408 2.76203 446.82C4.28603 447.037 6.06003 446.019 8.30503 443.638C10.121 441.712 12.821 439.832 14.304 439.46C15.787 439.088 17 438.382 17 437.892C17 437.401 17.615 437 18.367 437C19.119 437 20.937 435.182 22.408 432.96C23.879 430.738 26.188 428.499 27.541 427.984C29.054 427.409 30 426.257 30 424.991C30 423.859 31.381 421.583 33.068 419.933C34.819 418.222 36.372 415.48 36.686 413.546C37.092 411.047 37.861 410.001 39.618 409.56C41.544 409.076 42 408.31 42 405.558C42 401.681 46.801 396 50.077 396C51.135 396 52 395.325 52 394.5C52 393.675 52.414 393 52.921 393C53.427 393 54.138 391.65 54.5 390C54.862 388.35 55.524 387 55.971 387C56.418 387 57.086 385.794 57.456 384.321C57.825 382.847 59.855 379.966 61.966 377.917C64.077 375.868 66.092 373.287 66.443 372.18C66.794 371.073 68.427 369.698 70.071 369.125C71.715 368.552 73.721 367.422 74.53 366.613C76.54 364.603 76.381 361.248 74.25 360.679C72.794 360.291 72.893 360.087 74.842 359.465C76.853 358.824 77.132 358.183 76.821 354.916C76.536 351.93 76.838 351.014 78.229 350.65C79.304 350.369 80 350.74 80 351.594C80 353.973 93.334 353.809 95.742 351.4C96.513 350.63 98.059 350 99.178 350C100.624 350 101.038 349.541 100.607 348.418C100.273 347.548 100 346.4 100 345.866C100 345.333 98.631 344.419 96.958 343.835L93.916 342.775L94.615 330.194C95.243 318.879 95.542 317.402 97.588 315.506C98.838 314.347 100.167 312.184 100.539 310.699C100.912 309.215 101.618 308 102.108 308C102.599 308 103 307.381 103 306.625C103 304.857 106.919 304.165 114.67 304.564C121.497 304.916 125 306.976 125 310.639C125 311.846 125.563 313.021 126.25 313.249C127.101 313.533 127.61 316.747 127.847 323.333C128.037 328.65 128.551 333 128.988 333C129.425 333 130.056 334.087 130.39 335.416C130.744 336.829 132.138 338.249 133.748 338.837C135.262 339.39 135.938 339.878 135.25 339.921C134.563 339.964 134 340.9 134 342C134 343.556 134.667 344 137 344C138.65 344 140 343.55 140 343C140 342.45 141.238 341.987 142.75 341.972C145.272 341.946 154 335.519 154 333.688C154 332.479 157.729 329.221 159.901 328.531C161.056 328.165 162 327.221 162 326.433C162 325.645 162.862 325 163.917 325C164.971 325 165.99 324.53 166.181 323.956C166.686 322.442 175.262 322.285 175.76 323.78C176.246 325.237 181 325.437 181 324C181 322.504 185.114 322.794 186.39 324.38C187.246 325.445 189.217 325.612 195 325.11C199.125 324.752 204.3 324.839 206.5 325.303C211.063 326.264 221 325.322 221 323.928C221 323.418 221.45 323 222 323C222.55 323 223 324.116 223 325.481C223 328.437 226.046 329.525 232.06 328.719C236.103 328.177 237.507 329.387 234.092 330.471C233.043 330.804 231.932 331.734 231.624 332.538C231.315 333.342 230.538 334 229.896 334C229.254 334 227.692 335.12 226.423 336.488C224.105 338.99 215.642 341.975 214.397 340.73C214.03 340.363 214.481 338.915 215.399 337.513C216.941 335.16 216.944 334.916 215.434 334.336C214.534 333.991 213.506 334.163 213.149 334.72C212.792 335.276 211.375 336.08 210 336.508C208.625 336.936 206.721 338.234 205.769 339.393C204.816 340.552 203.579 342.044 203.019 342.708C202.458 343.372 202 344.564 202 345.356C202 347.109 190.823 359 189.176 359C188.529 359 188 359.45 188 360C188 360.55 186.897 361 185.55 361C184.202 361 182.74 361.614 182.3 362.364C181.852 363.128 179.14 363.949 176.143 364.228C173.197 364.502 170.497 365.173 170.143 365.719C169.79 366.265 167.813 367.022 165.75 367.401C163.688 367.78 162 368.52 162 369.045C162 369.57 161.394 370 160.653 370C158.711 370 155.403 373.129 154.576 375.75C154.185 376.987 153.494 378 153.041 378C152.588 378 151.942 379.095 151.606 380.433C151.27 381.772 150.185 383.124 149.194 383.439C148.203 383.753 145.407 385.92 142.98 388.255C138.099 392.95 135.25 394.693 131.695 395.159C129.01 395.511 126 393.001 126 390.411C126 388.458 120.344 383 118.32 383C117.594 383 117 382.55 117 382C117 381.45 114.75 381 112 381C105.926 381 103.512 383.01 102.518 388.894C102.088 391.436 101.286 393 100.412 393C99.408 393 99 394.283 99 397.441C99 399.884 98.55 402.16 98 402.5C97.45 402.84 97 404.786 97 406.824C97 408.862 96.1 412.209 95 414.261C93.9 416.314 93 418.482 93 419.08C93 420.371 86.359 427 85.065 427C84.571 427 84.006 427.483 83.809 428.074C83.612 428.665 80.546 429.412 76.996 429.734C72.093 430.179 69.599 431.002 66.621 433.16C64.464 434.722 62.092 436 61.35 436C60.607 436 60 436.45 60 437C60 437.55 59.438 438.008 58.75 438.017C57.268 438.038 53 442.336 53 443.808C53 444.372 52.615 444.983 52.143 445.167C51.672 445.35 50.977 447.188 50.598 449.25L49.909 453H53.455C55.405 453 57 453.408 57 453.907C57 454.405 61.282 455.134 66.515 455.527C71.749 455.919 76.255 456.603 76.528 457.046C76.802 457.489 81.071 458.168 86.013 458.555C90.956 458.942 95 459.612 95 460.045C95 460.477 99.95 461.152 106 461.544C112.05 461.936 117 462.58 117 462.974C117 463.369 122.708 463.981 129.684 464.334C136.66 464.688 142.623 465.383 142.934 465.879C143.245 466.375 148.338 467.109 154.25 467.51C160.162 467.911 165 468.581 165 469C165 469.419 169.725 470.083 175.5 470.477C181.275 470.87 186 471.549 186 471.986C186 472.422 191.4 473.103 198 473.5C204.6 473.897 210 474.563 210 474.982C210 475.4 212.25 476.041 215 476.406C217.75 476.77 220 477.436 220 477.885C220 478.333 224.116 478.993 229.147 479.35C234.178 479.707 238.858 480.467 239.548 481.04C240.238 481.612 246.359 482.584 253.151 483.199C259.943 483.813 265.725 484.627 266 485.007C266.275 485.387 271.878 485.998 278.451 486.365C285.024 486.732 290.649 487.405 290.951 487.861C291.253 488.317 293.264 488.969 295.419 489.31C297.575 489.65 299.689 490.497 300.119 491.192C301.129 492.827 309.214 492.857 309.758 491.227C310.23 489.811 324.549 489.462 325.405 490.846C325.692 491.311 330.755 491.987 336.656 492.348C342.728 492.72 347.682 493.486 348.07 494.114C348.489 494.791 353.969 495.429 362.128 495.753C369.483 496.044 375.733 496.638 376.017 497.073C376.301 497.508 385.301 498.159 396.017 498.519C406.733 498.88 415.95 499.535 416.5 499.976C417.05 500.417 420.313 501.097 423.75 501.487C427.188 501.877 430 502.533 430 502.945C430 503.357 436.595 503.962 444.654 504.288C454.73 504.696 459.55 505.272 460.08 506.129C460.569 506.92 464.174 507.536 469.925 507.811C474.916 508.049 479 508.594 479 509.021C479 509.448 482.15 510.113 486 510.5C489.85 510.887 493 511.607 493 512.101C493 513.338 505.732 513.242 506.5 512C507.305 510.697 513 510.697 513 512C513 512.585 516.42 513.002 521.25 513.005C525.788 513.007 534.527 513.299 540.672 513.653C550.718 514.232 551.897 514.498 552.368 516.298C552.855 518.161 553.36 518.241 559.696 517.454C563.438 516.989 573.168 516.561 581.318 516.503C590.432 516.438 596.399 515.994 596.818 515.35C597.253 514.682 608.562 514.06 628 513.635C646.489 513.23 658.631 512.58 658.833 511.984C659.276 510.676 675 510.692 675 512C675 512.55 676.125 513 677.5 513C678.875 513 680 512.617 680 512.15C680 511.682 696.087 510.976 715.75 510.581C735.413 510.186 751.927 509.444 752.45 508.931C753.721 507.686 758 507.738 758 509C758 509.571 761 510 765 510C768.85 510 772 509.617 772 509.148C772 508.679 776.121 508.029 781.157 507.703C786.956 507.327 790.651 506.631 791.233 505.805C791.957 504.777 792.26 504.765 792.659 505.75C793.25 507.206 824 507.598 824 506.149C824 505.681 832.429 504.977 842.731 504.584C853.033 504.192 861.696 503.518 861.981 503.086C862.266 502.655 872.804 502.01 885.397 501.652C897.99 501.294 908.79 500.6 909.397 500.109C910.004 499.619 915.361 499.044 921.303 498.831C927.493 498.61 932.404 497.986 932.803 497.369C933.226 496.716 939.737 496.07 949.335 495.728C958.044 495.417 965.41 494.923 965.704 494.629C965.998 494.336 965.51 493.367 964.619 492.476C963.729 491.586 963 490.214 963 489.429C963 488.643 962.55 488 962 488C961.45 488 960.997 487.212 960.994 486.25C960.99 485.288 960.361 483.299 959.596 481.832C958.83 480.364 957.893 477.327 957.514 475.082C957.135 472.837 956.471 471 956.04 471C955.609 471 954.965 469.18 954.609 466.956C954.253 464.732 953.531 462.145 953.004 461.206C952.477 460.268 951.584 457.645 951.019 455.377C950.073 451.58 949.675 451.204 945.996 450.615C943.798 450.264 942 449.532 942 448.988C942 448.445 941.212 447.964 940.25 447.921C939.205 447.874 939.003 447.639 939.75 447.338C941.256 446.73 941.471 437.409 940 436.5C939.45 436.16 939 431.844 939 426.91C939 420.112 938.658 417.806 937.59 417.396C936.815 417.099 935.879 415.655 935.511 414.188C935.143 412.72 934.315 411.178 933.671 410.76C932.814 410.204 932.902 409.711 934 408.924C935.129 408.114 935.191 407.722 934.25 407.341C932.722 406.721 932.591 405 934.071 405C935.967 405 938 402.216 938 399.621C938 398.234 938.696 396.71 939.546 396.234C941.466 395.16 942.026 386.842 940.22 386.24C939.549 386.016 939 385.266 939 384.572C939 383.878 938.1 382.495 937 381.5C934.434 379.178 934.434 375.37 937 373.768C938.1 373.081 939 371.99 939 371.343C939 370.697 940.323 369.582 941.94 368.866C944.601 367.688 946.078 365.531 946.407 362.34C946.583 360.632 949.982 357.141 952.132 356.458C953.586 355.997 954 354.883 954 351.433C954 348.995 953.55 347 953 347C952.45 347 952 346.55 952 346C952 345.45 952.675 345 953.5 345C954.433 345 955 344.056 955 342.5C955 340.922 954.435 340 953.469 340C952.626 340 951.639 339.212 951.275 338.25C950.91 337.287 950.006 335.888 949.266 335.139C948.139 333.998 948.179 333.59 949.515 332.613C951.123 331.437 950.659 328 948.893 328C948.402 328 948 322.15 948 315C948 307 948.385 302 949 302C949.55 302 950 301.394 950 300.653C950 299.913 951.536 297.725 953.413 295.792C956.327 292.792 957.753 292.161 963.163 291.48C966.648 291.041 970.008 290.761 970.629 290.857C971.842 291.045 972.964 287.901 972.986 284.25C972.997 282.42 973.56 282 976 282C977.65 282 979 281.55 979 281C979 280.45 980.26 280 981.8 280C983.34 280 985.14 279.46 985.8 278.8C987.373 277.227 987.341 273.305 985.75 272.659C983.682 271.82 987.062 270.033 990.75 270.015C992.965 270.005 994 269.522 994 268.5C994 267.675 993.55 267 993 267C992.45 267 992 265.65 992 264C992 262.35 992.401 261 992.892 261C993.382 261 994.089 259.78 994.464 258.289C994.966 256.286 994.668 255.212 993.322 254.174C992.031 253.18 991.864 252.634 992.75 252.302C995.218 251.377 994.139 246.986 991.006 245.203C988.12 243.561 986.968 240.521 988.971 239.833C989.504 239.65 990.067 238.394 990.221 237.042C990.444 235.074 989.717 234.171 986.574 232.513C982.755 230.499 980.73 228 982.917 228C983.513 228 984 226.705 984 225.122C984 223.54 984.675 221.685 985.5 221C987.172 219.612 987.547 216 986.019 216C985.48 216 984.756 214.875 984.411 213.5C984.066 212.125 983.157 211 982.392 211C981.626 211 981 210.325 981 209.5C981 208.675 980.325 208 979.5 208C978.675 208 978 207.559 978 207.019C978 206.48 976.852 205.75 975.449 205.398C973.645 204.945 972.527 205.264 971.633 206.488C970.937 207.439 969.498 208.052 968.434 207.85C966.901 207.558 966.437 206.498 966.195 202.741C965.923 198.503 965.638 198 963.517 198C962.211 198 960.468 198.675 959.643 199.5C957.566 201.577 955.331 201.375 954.725 199.057C954.2 197.047 956.693 194 958.864 194C959.76 194 959.795 193.486 959 192C958.299 190.69 956.906 190 954.965 190C953.004 190 952 189.495 952 188.508C952 187.688 951.1 186.455 950 185.768C948.635 184.916 948 183.436 948 181.11C948 178.515 947.147 176.873 944.423 174.228C941.777 171.658 940.554 171.046 939.723 171.877C937.584 174.016 936.025 173.007 935.397 169.08C934.908 166.02 934.236 165.025 932.339 164.549C928.569 163.603 927.819 164.738 928.173 170.856C928.462 175.841 928.289 176.464 926.693 176.193C923.507 175.652 921.309 172.434 920.752 167.496C920.423 164.574 919.584 162.347 918.606 161.799C917.723 161.305 917 159.798 917 158.45C917 157.103 916.599 156 916.108 156C915.618 156 914.942 154.905 914.606 153.567C914.27 152.228 913.096 150.848 911.998 150.499C910.899 150.151 910 149.033 910 148.016C910 146.999 909.566 146.017 909.036 145.833C908.505 145.65 907.87 142.187 907.623 138.137C907.376 134.087 906.685 130.285 906.087 129.687C905.489 129.089 905 126.44 905 123.8C905 119.347 904.819 119 902.5 119C901.125 119 900 119.391 900 119.868C900 120.346 898.135 120.987 895.856 121.293C893.577 121.598 891.439 122.229 891.106 122.695C890.773 123.16 889.375 124.091 888 124.763C884.798 126.329 881.642 128.313 880.99 129.171C880.709 129.54 879.247 130.151 877.74 130.529C876.233 130.907 875 131.618 875 132.108C875 132.599 872.075 133 868.5 133C864.833 133 862 132.564 862 132C862 131.45 861.347 131 860.55 131C859.752 131 858.74 130.378 858.3 129.619C857.734 128.642 854.628 128.115 847.683 127.82C841.389 127.552 837.593 126.96 837.105 126.169C836.627 125.397 832.546 124.706 826.172 124.318C820.577 123.977 816 123.316 816 122.849C816 121.626 808.234 121.799 807.823 123.032C807.634 123.599 803.434 124.335 798.489 124.668C793.545 125 788.954 125.702 788.287 126.228C787.619 126.754 783.457 127.432 779.037 127.735C774.616 128.038 771 128.671 771 129.143C771 129.614 770.425 130 769.722 130C767.932 130 765.428 133.157 764.6 136.458C763.683 140.112 761.801 141.89 758.058 142.638C756.376 142.975 755 143.644 755 144.125C755 145.262 750.282 145.266 749.58 144.129C749.284 143.65 747.715 142.993 746.094 142.669C742.192 141.888 736.078 135.66 735.303 131.677C734.963 129.93 734.233 128.203 733.681 127.841C733.064 127.437 733.337 126.521 734.384 125.473C735.678 124.179 736.021 122.397 735.796 118.132C735.517 112.816 735.345 112.482 732.75 112.184C731.237 112.01 730 111.447 730 110.934C730 110.42 728.65 110 727 110C725.35 110 724 110.45 724 111C724 111.55 722.897 112 721.55 112C720.202 112 718.736 112.649 718.292 113.443C716.903 115.924 713.088 116.671 706.894 115.673C703.652 115.151 701 114.385 701 113.97C701 113.556 699.767 112.907 698.26 112.529C696.753 112.151 695.263 111.425 694.948 110.917C694.634 110.408 692.042 109.437 689.188 108.759C686.335 108.081 684 107.183 684 106.763C684 106.344 682.893 106 681.54 106C679.008 106 674.425 101.908 673.422 98.75C673.116 97.787 672.446 97 671.933 97C671.42 97 671 96.361 671 95.579C671 93.85 667.281 93.006 660.137 93.113C654.97 93.191 649.4 91.248 646.194 88.25C645.459 87.563 644.102 86.985 643.179 86.967C640.059 86.905 637.001 83.387 636.983 79.84C636.964 76.239 634.173 72.813 630.25 71.575C629.013 71.185 628 70.431 628 69.901C628 69.371 627.212 68.646 626.25 68.289C625.288 67.933 622.859 65.969 620.853 63.926C618.317 61.342 615.959 60 613.109 59.518C610.855 59.138 608.757 58.415 608.446 57.913C608.136 57.411 606.221 56.987 604.191 56.972C601.441 56.952 599.757 56.187 597.583 53.972C595.156 51.498 593.866 51 589.892 51C587.266 51 584.876 51.392 584.58 51.871C584.284 52.35 582.682 53.014 581.021 53.346C579.187 53.713 578 54.572 578 55.532C578 56.776 577.089 57.049 573.75 56.807C570.075 56.542 569.454 56.162 569.163 54C568.959 52.487 565.937 48.663 561.507 44.314C556.808 39.701 553.946 36.031 553.514 34.064C553.144 32.379 552.478 31 552.034 31C551.59 31 550.923 28.975 550.552 26.5C550.181 24.025 549.491 22 549.018 22C548.546 22 547.862 20.65 547.5 19C547.138 17.35 546.435 16 545.94 16C545.444 16 544.756 14.875 544.411 13.5C544.066 12.125 543.418 11 542.971 11C542.524 11 541.862 9.65 541.5 8C541.138 6.35 540.427 5 539.921 5C539.414 5 539 4.341 539 3.535C539 2.152 536.13 0 534.287 0C533.822 0 532.793 0.9 532 2Z" fill="#DDDDDD"/>
</svg>
